<svg xmlns="http://www.w3.org/2000/svg" viewBox="0 0 1200 600" fill="none">
  <rect width="1200" height="600" fill="white"/>
  <g fill="#E5E5E5">
    <circle cx="170" cy="220" r="6"/>
    <circle cx="200" cy="210" r="6"/>
    <circle cx="230" cy="220" r="6"/>
    <circle cx="260" cy="230" r="6"/>
    <circle cx="290" cy="240" r="6"/>
    <circle cx="210" cy="250" r="6"/>
    <circle cx="240" cy="260" r="6"/>
    <circle cx="270" cy="270" r="6"/>
    <circle cx="300" cy="280" r="6"/>
    <circle cx="330" cy="290" r="6"/>
    <circle cx="360" cy="300" r="6"/>
    <circle cx="420" cy="210" r="6"/>
    <circle cx="450" cy="220" r="6"/>
    <circle cx="480" cy="230" r="6"/>
    <circle cx="510" cy="240" r="6"/>
    <circle cx="540" cy="250" r="6"/>
    <circle cx="570" cy="260" r="6"/>
    <circle cx="600" cy="270" r="6"/>
    <circle cx="630" cy="280" r="6"/>
    <circle cx="660" cy="290" r="6"/>
    <circle cx="690" cy="300" r="6"/>
    <circle cx="720" cy="310" r="6"/>
    <circle cx="750" cy="320" r="6"/>
    <circle cx="780" cy="330" r="6"/>
    <circle cx="810" cy="340" r="6"/>
    <circle cx="840" cy="350" r="6"/>
    <circle cx="870" cy="360" r="6"/>
    <circle cx="900" cy="370" r="6"/>
    <circle cx="930" cy="380" r="6"/>
    <circle cx="960" cy="390" r="6"/>
    <circle cx="990" cy="400" r="6"/>
    <circle cx="1020" cy="410" r="6"/>
    <circle cx="1050" cy="420" r="6"/>
    <circle cx="1080" cy="430" r="6"/>
    <circle cx="240" cy="180" r="6"/>
    <circle cx="270" cy="170" r="6"/>
    <circle cx="300" cy="160" r="6"/>
    <circle cx="330" cy="150" r="6"/>
    <circle cx="360" cy="140" r="6"/>
    <circle cx="390" cy="130" r="6"/>
    <circle cx="420" cy="120" r="6"/>
    <circle cx="600" cy="160" r="6"/>
    <circle cx="630" cy="170" r="6"/>
    <circle cx="660" cy="180" r="6"/>
    <circle cx="690" cy="190" r="6"/>
    <circle cx="720" cy="200" r="6"/>
    <circle cx="750" cy="210" r="6"/>
    <circle cx="780" cy="220" r="6"/>
    <circle cx="810" cy="230" r="6"/>
    <circle cx="840" cy="240" r="6"/>
    <circle cx="870" cy="250" r="6"/>
    <circle cx="900" cy="260" r="6"/>
    <circle cx="930" cy="270" r="6"/>
    <circle cx="960" cy="280" r="6"/>
    <circle cx="990" cy="290" r="6"/>
    <circle cx="1020" cy="300" r="6"/>
    <circle cx="1050" cy="310" r="6"/>
    <circle cx="1080" cy="320" r="6"/>
    <circle cx="540" cy="360" r="6"/>
    <circle cx="570" cy="370" r="6"/>
    <circle cx="600" cy="380" r="6"/>
    <circle cx="630" cy="390" r="6"/>
    <circle cx="660" cy="400" r="6"/>
    <circle cx="690" cy="410" r="6"/>
    <circle cx="720" cy="420" r="6"/>
    <circle cx="750" cy="430" r="6"/>
    <circle cx="780" cy="440" r="6"/>
  </g>
</svg>
